<svg xmlns="http://www.w3.org/2000/svg" xmlns:xlink="http://www.w3.org/1999/xlink" width="500" height="500" viewBox="0 0 500 500">
  <defs>
    <clipPath id="clip-iPad_1">
      <rect width="500" height="500"/>
    </clipPath>
  </defs>
  <g id="iPad_1" data-name="iPad – 1" clip-path="url(#clip-iPad_1)">
    <rect width="500" height="500" fill="#fff"/>
    <g id="Rectangle_10" data-name="Rectangle 10" fill="#030303" stroke="#707070" stroke-width="1">
      <rect width="500" height="500" stroke="none"/>
      <rect x="0.5" y="0.5" width="499" height="499" fill="none"/>
    </g>
    <g id="Group_15" data-name="Group 15" transform="translate(-11 52.35)">
      <g id="Group_10" data-name="Group 10" transform="translate(275.868 139.158)">
        <g id="Group_6" data-name="Group 6" transform="translate(73.655 246.217) rotate(180)">
          <g id="Group_4" data-name="Group 4" transform="translate(0.9 0)">
            <path id="Path_7" data-name="Path 7" d="M5.953,11.871l29.395.088a5.893,5.893,0,0,0,5.918-5.918A5.979,5.979,0,0,0,35.312.088L5.918,0A5.893,5.893,0,0,0,0,5.918,5.979,5.979,0,0,0,5.953,11.871Z" transform="translate(0 29.179) rotate(-45)" fill="#4b4b4b"/>
            <path id="Path_8" data-name="Path 8" d="M5.953,11.871l29.395.088a5.893,5.893,0,0,0,5.918-5.918A5.979,5.979,0,0,0,35.312.088L5.918,0A5.893,5.893,0,0,0,0,5.918,5.979,5.979,0,0,0,5.953,11.871Z" transform="translate(0 47.777) rotate(-45)" fill="#4b4b4b"/>
            <path id="Path_9" data-name="Path 9" d="M5.953,11.871l29.395.088a5.893,5.893,0,0,0,5.918-5.918A5.979,5.979,0,0,0,35.312.088L5.918,0A5.893,5.893,0,0,0,0,5.918,5.979,5.979,0,0,0,5.953,11.871Z" transform="translate(0 65.812) rotate(-45)" fill="#4b4b4b"/>
            <path id="Path_10" data-name="Path 10" d="M5.953,11.871l29.395.088a5.893,5.893,0,0,0,5.918-5.918A5.979,5.979,0,0,0,35.312.088L5.918,0A5.893,5.893,0,0,0,0,5.918,5.979,5.979,0,0,0,5.953,11.871Z" transform="translate(0 84.41) rotate(-45)" fill="#4b4b4b"/>
            <path id="Path_11" data-name="Path 11" d="M5.953,11.871l29.395.088a5.893,5.893,0,0,0,5.918-5.918A5.979,5.979,0,0,0,35.312.088L5.918,0A5.893,5.893,0,0,0,0,5.918,5.979,5.979,0,0,0,5.953,11.871Z" transform="translate(0 103.009) rotate(-45)" fill="#4b4b4b"/>
            <path id="Path_12" data-name="Path 12" d="M5.953,11.871l29.395.088a5.893,5.893,0,0,0,5.918-5.918A5.979,5.979,0,0,0,35.312.088L5.918,0A5.893,5.893,0,0,0,0,5.918,5.979,5.979,0,0,0,5.953,11.871Z" transform="translate(0 121.607) rotate(-45)" fill="#4b4b4b"/>
          </g>
          <g id="Group_5" data-name="Group 5" transform="translate(0 0)">
            <g id="Group_1" data-name="Group 1" transform="translate(73.655 129.888) rotate(180)">
              <rect id="Rectangle_1" data-name="Rectangle 1" width="41.142" height="11.835" rx="5.918" transform="translate(8.369 92.428) rotate(45)" fill="#4b4b4b"/>
              <rect id="Rectangle_2" data-name="Rectangle 2" width="41.142" height="11.835" rx="5.918" transform="translate(8.369 73.83) rotate(45)" fill="#4b4b4b"/>
              <rect id="Rectangle_3" data-name="Rectangle 3" width="41.142" height="11.835" rx="5.918" transform="translate(8.369 55.795) rotate(45)" fill="#4b4b4b"/>
              <rect id="Rectangle_4" data-name="Rectangle 4" width="41.142" height="11.835" rx="5.918" transform="translate(8.369 37.197) rotate(45)" fill="#4b4b4b"/>
              <rect id="Rectangle_5" data-name="Rectangle 5" width="41.142" height="11.835" rx="5.918" transform="translate(8.369 18.598) rotate(45)" fill="#4b4b4b"/>
              <rect id="Rectangle_6" data-name="Rectangle 6" width="41.142" height="11.835" rx="5.918" transform="translate(8.369) rotate(45)" fill="#4b4b4b"/>
            </g>
            <g id="Group_2" data-name="Group 2" transform="translate(72.755 242.44) rotate(180)">
              <rect id="Rectangle_1-2" data-name="Rectangle 1" width="41.142" height="11.835" rx="5.918" transform="translate(8.369 92.428) rotate(45)" fill="#4b4b4b"/>
              <rect id="Rectangle_2-2" data-name="Rectangle 2" width="41.142" height="11.835" rx="5.918" transform="translate(8.369 73.83) rotate(45)" fill="#4b4b4b"/>
              <rect id="Rectangle_3-2" data-name="Rectangle 3" width="41.142" height="11.835" rx="5.918" transform="translate(8.369 55.795) rotate(45)" fill="#4b4b4b"/>
              <rect id="Rectangle_4-2" data-name="Rectangle 4" width="41.142" height="11.835" rx="5.918" transform="translate(8.369 37.197) rotate(45)" fill="#4b4b4b"/>
              <rect id="Rectangle_5-2" data-name="Rectangle 5" width="41.142" height="11.835" rx="5.918" transform="translate(8.369 18.598) rotate(45)" fill="#4b4b4b"/>
              <rect id="Rectangle_6-2" data-name="Rectangle 6" width="41.142" height="11.835" rx="5.918" transform="translate(8.369 0) rotate(45)" fill="#4b4b4b"/>
            </g>
            <g id="Group_3" data-name="Group 3" transform="translate(0 112.552)">
              <path id="Path_1" data-name="Path 1" d="M5.953,11.871l29.395.088a5.893,5.893,0,0,0,5.918-5.918A5.979,5.979,0,0,0,35.312.088L5.918,0A5.893,5.893,0,0,0,0,5.918,5.979,5.979,0,0,0,5.953,11.871Z" transform="translate(0 29.179) rotate(-45)" fill="#4b4b4b"/>
              <path id="Path_2" data-name="Path 2" d="M5.953,11.871l29.395.088a5.893,5.893,0,0,0,5.918-5.918A5.979,5.979,0,0,0,35.312.088L5.918,0A5.893,5.893,0,0,0,0,5.918,5.979,5.979,0,0,0,5.953,11.871Z" transform="translate(0 47.777) rotate(-45)" fill="#4b4b4b"/>
              <path id="Path_3" data-name="Path 3" d="M5.953,11.871l29.395.088a5.893,5.893,0,0,0,5.918-5.918A5.979,5.979,0,0,0,35.312.088L5.918,0A5.893,5.893,0,0,0,0,5.918,5.979,5.979,0,0,0,5.953,11.871Z" transform="translate(0 65.812) rotate(-45)" fill="#4b4b4b"/>
              <path id="Path_4" data-name="Path 4" d="M5.953,11.871l29.395.088a5.893,5.893,0,0,0,5.918-5.918A5.979,5.979,0,0,0,35.312.088L5.918,0A5.893,5.893,0,0,0,0,5.918,5.979,5.979,0,0,0,5.953,11.871Z" transform="translate(0 84.41) rotate(-45)" fill="#4b4b4b"/>
              <path id="Path_5" data-name="Path 5" d="M5.953,11.871l29.395.088a5.893,5.893,0,0,0,5.918-5.918A5.979,5.979,0,0,0,35.312.088L5.918,0A5.893,5.893,0,0,0,0,5.918,5.979,5.979,0,0,0,5.953,11.871Z" transform="translate(0 103.009) rotate(-45)" fill="#4b4b4b"/>
              <path id="Path_6" data-name="Path 6" d="M5.953,11.871l29.395.088a5.893,5.893,0,0,0,5.918-5.918A5.979,5.979,0,0,0,35.312.088L5.918,0A5.893,5.893,0,0,0,0,5.918,5.979,5.979,0,0,0,5.953,11.871Z" transform="translate(0 121.607) rotate(-45)" fill="#4b4b4b"/>
            </g>
          </g>
        </g>
        <rect id="Rectangle_7" data-name="Rectangle 7" width="9.905" height="302.971" rx="4.952" transform="translate(31.693 0)" fill="#4b4b4b"/>
      </g>
      <g id="Group_13" data-name="Group 13" transform="translate(384.48 17.777)">
        <g id="Group_6-2" data-name="Group 6" transform="translate(73.655 242.44) rotate(180)">
          <g id="Group_4-2" data-name="Group 4" transform="translate(0.9)">
            <path id="Path_7-2" data-name="Path 7" d="M5.953,11.871l29.395.088a5.893,5.893,0,0,0,5.918-5.918A5.979,5.979,0,0,0,35.312.088L5.918,0A5.893,5.893,0,0,0,0,5.918,5.979,5.979,0,0,0,5.953,11.871Z" transform="translate(0 29.179) rotate(-45)" fill="#fff"/>
            <path id="Path_8-2" data-name="Path 8" d="M5.953,11.871l29.395.088a5.893,5.893,0,0,0,5.918-5.918A5.979,5.979,0,0,0,35.312.088L5.918,0A5.893,5.893,0,0,0,0,5.918,5.979,5.979,0,0,0,5.953,11.871Z" transform="translate(0 47.777) rotate(-45)" fill="#fff"/>
            <path id="Path_9-2" data-name="Path 9" d="M5.953,11.871l29.395.088a5.893,5.893,0,0,0,5.918-5.918A5.979,5.979,0,0,0,35.312.088L5.918,0A5.893,5.893,0,0,0,0,5.918,5.979,5.979,0,0,0,5.953,11.871Z" transform="translate(0 65.812) rotate(-45)" fill="#fff"/>
            <path id="Path_10-2" data-name="Path 10" d="M5.953,11.871l29.395.088a5.893,5.893,0,0,0,5.918-5.918A5.979,5.979,0,0,0,35.312.088L5.918,0A5.893,5.893,0,0,0,0,5.918,5.979,5.979,0,0,0,5.953,11.871Z" transform="translate(0 84.41) rotate(-45)" fill="#fff"/>
            <path id="Path_11-2" data-name="Path 11" d="M5.953,11.871l29.395.088a5.893,5.893,0,0,0,5.918-5.918A5.979,5.979,0,0,0,35.312.088L5.918,0A5.893,5.893,0,0,0,0,5.918,5.979,5.979,0,0,0,5.953,11.871Z" transform="translate(0 103.009) rotate(-45)" fill="#fff"/>
            <path id="Path_12-2" data-name="Path 12" d="M5.953,11.871l29.395.088a5.893,5.893,0,0,0,5.918-5.918A5.979,5.979,0,0,0,35.312.088L5.918,0A5.893,5.893,0,0,0,0,5.918,5.979,5.979,0,0,0,5.953,11.871Z" transform="translate(0 121.607) rotate(-45)" fill="#fff"/>
          </g>
          <g id="Group_5-2" data-name="Group 5" transform="translate(0 0)">
            <g id="Group_1-2" data-name="Group 1" transform="translate(73.655 129.888) rotate(180)">
              <rect id="Rectangle_1-3" data-name="Rectangle 1" width="41.142" height="11.835" rx="5.918" transform="translate(8.369 92.428) rotate(45)" fill="#fff"/>
              <rect id="Rectangle_2-3" data-name="Rectangle 2" width="41.142" height="11.835" rx="5.918" transform="translate(8.369 73.83) rotate(45)" fill="#fff"/>
              <rect id="Rectangle_3-3" data-name="Rectangle 3" width="41.142" height="11.835" rx="5.918" transform="translate(8.369 55.795) rotate(45)" fill="#fff"/>
              <rect id="Rectangle_4-3" data-name="Rectangle 4" width="41.142" height="11.835" rx="5.918" transform="translate(8.369 37.197) rotate(45)" fill="#fff"/>
              <rect id="Rectangle_5-3" data-name="Rectangle 5" width="41.142" height="11.835" rx="5.918" transform="translate(8.369 18.598) rotate(45)" fill="#fff"/>
              <rect id="Rectangle_6-3" data-name="Rectangle 6" width="41.142" height="11.835" rx="5.918" transform="translate(8.369) rotate(45)" fill="#fff"/>
            </g>
            <g id="Group_2-2" data-name="Group 2" transform="translate(72.755 242.44) rotate(180)">
              <rect id="Rectangle_1-4" data-name="Rectangle 1" width="41.142" height="11.835" rx="5.918" transform="translate(8.369 92.428) rotate(45)" fill="#fff"/>
              <rect id="Rectangle_2-4" data-name="Rectangle 2" width="41.142" height="11.835" rx="5.918" transform="translate(8.369 73.83) rotate(45)" fill="#fff"/>
              <rect id="Rectangle_3-4" data-name="Rectangle 3" width="41.142" height="11.835" rx="5.918" transform="translate(8.369 55.795) rotate(45)" fill="#fff"/>
              <rect id="Rectangle_4-4" data-name="Rectangle 4" width="41.142" height="11.835" rx="5.918" transform="translate(8.369 37.197) rotate(45)" fill="#fff"/>
              <rect id="Rectangle_5-4" data-name="Rectangle 5" width="41.142" height="11.835" rx="5.918" transform="translate(8.369 18.598) rotate(45)" fill="#fff"/>
              <rect id="Rectangle_6-4" data-name="Rectangle 6" width="41.142" height="11.835" rx="5.918" transform="translate(8.369) rotate(45)" fill="#fff"/>
            </g>
            <g id="Group_3-2" data-name="Group 3" transform="translate(0 112.552)">
              <path id="Path_1-2" data-name="Path 1" d="M5.953,11.871l29.395.088a5.893,5.893,0,0,0,5.918-5.918A5.979,5.979,0,0,0,35.312.088L5.918,0A5.893,5.893,0,0,0,0,5.918,5.979,5.979,0,0,0,5.953,11.871Z" transform="translate(0 29.179) rotate(-45)" fill="#fff"/>
              <path id="Path_2-2" data-name="Path 2" d="M5.953,11.871l29.395.088a5.893,5.893,0,0,0,5.918-5.918A5.979,5.979,0,0,0,35.312.088L5.918,0A5.893,5.893,0,0,0,0,5.918,5.979,5.979,0,0,0,5.953,11.871Z" transform="translate(0 47.777) rotate(-45)" fill="#fff"/>
              <path id="Path_3-2" data-name="Path 3" d="M5.953,11.871l29.395.088a5.893,5.893,0,0,0,5.918-5.918A5.979,5.979,0,0,0,35.312.088L5.918,0A5.893,5.893,0,0,0,0,5.918,5.979,5.979,0,0,0,5.953,11.871Z" transform="translate(0 65.812) rotate(-45)" fill="#fff"/>
              <path id="Path_4-2" data-name="Path 4" d="M5.953,11.871l29.395.088a5.893,5.893,0,0,0,5.918-5.918A5.979,5.979,0,0,0,35.312.088L5.918,0A5.893,5.893,0,0,0,0,5.918,5.979,5.979,0,0,0,5.953,11.871Z" transform="translate(0 84.41) rotate(-45)" fill="#fff"/>
              <path id="Path_5-2" data-name="Path 5" d="M5.953,11.871l29.395.088a5.893,5.893,0,0,0,5.918-5.918A5.979,5.979,0,0,0,35.312.088L5.918,0A5.893,5.893,0,0,0,0,5.918,5.979,5.979,0,0,0,5.953,11.871Z" transform="translate(0 103.009) rotate(-45)" fill="#fff"/>
              <path id="Path_6-2" data-name="Path 6" d="M4.4,11.871l21.715.088c2.422.01,4.379-2.64,4.372-5.918S28.508.1,26.086.088L4.372,0C1.95-.01-.007,2.64,0,5.918S1.976,11.861,4.4,11.871Z" transform="translate(7.624 113.983) rotate(-45)" fill="#fff"/>
            </g>
          </g>
        </g>
        <rect id="Rectangle_7-2" data-name="Rectangle 7" width="9.905" height="328.652" rx="4.952" transform="translate(31.693 2.526)" fill="#fff"/>
      </g>
      <g id="Group_9" data-name="Group 9" transform="translate(60 123.158)">
        <g id="Group_8" data-name="Group 8" transform="translate(73.655 246.217) rotate(180)">
          <g id="Group_4-3" data-name="Group 4" transform="translate(0.9)">
            <path id="Path_7-3" data-name="Path 7" d="M5.953,11.871l29.395.088a5.893,5.893,0,0,0,5.918-5.918A5.979,5.979,0,0,0,35.312.088L5.918,0A5.893,5.893,0,0,0,0,5.918,5.979,5.979,0,0,0,5.953,11.871Z" transform="translate(0 29.179) rotate(-45)" fill="#4b4b4b"/>
            <path id="Path_8-3" data-name="Path 8" d="M5.953,11.871l29.395.088a5.893,5.893,0,0,0,5.918-5.918A5.979,5.979,0,0,0,35.312.088L5.918,0A5.893,5.893,0,0,0,0,5.918,5.979,5.979,0,0,0,5.953,11.871Z" transform="translate(0 47.777) rotate(-45)" fill="#4b4b4b"/>
            <path id="Path_9-3" data-name="Path 9" d="M5.953,11.871l29.395.088a5.893,5.893,0,0,0,5.918-5.918A5.979,5.979,0,0,0,35.312.088L5.918,0A5.893,5.893,0,0,0,0,5.918,5.979,5.979,0,0,0,5.953,11.871Z" transform="translate(0 65.812) rotate(-45)" fill="#4b4b4b"/>
            <path id="Path_10-3" data-name="Path 10" d="M5.953,11.871l29.395.088a5.893,5.893,0,0,0,5.918-5.918A5.979,5.979,0,0,0,35.312.088L5.918,0A5.893,5.893,0,0,0,0,5.918,5.979,5.979,0,0,0,5.953,11.871Z" transform="translate(0 84.41) rotate(-45)" fill="#4b4b4b"/>
            <path id="Path_11-3" data-name="Path 11" d="M5.953,11.871l29.395.088a5.893,5.893,0,0,0,5.918-5.918A5.979,5.979,0,0,0,35.312.088L5.918,0A5.893,5.893,0,0,0,0,5.918,5.979,5.979,0,0,0,5.953,11.871Z" transform="translate(0 103.009) rotate(-45)" fill="#4b4b4b"/>
            <path id="Path_12-3" data-name="Path 12" d="M5.953,11.871l29.395.088a5.893,5.893,0,0,0,5.918-5.918A5.979,5.979,0,0,0,35.312.088L5.918,0A5.893,5.893,0,0,0,0,5.918,5.979,5.979,0,0,0,5.953,11.871Z" transform="translate(0 121.607) rotate(-45)" fill="#4b4b4b"/>
          </g>
          <g id="Group_5-3" data-name="Group 5" transform="translate(0 0)">
            <g id="Group_1-3" data-name="Group 1" transform="translate(73.655 129.888) rotate(180)">
              <rect id="Rectangle_1-5" data-name="Rectangle 1" width="41.142" height="11.835" rx="5.918" transform="translate(8.369 92.428) rotate(45)" fill="#4b4b4b"/>
              <rect id="Rectangle_2-5" data-name="Rectangle 2" width="41.142" height="11.835" rx="5.918" transform="translate(8.369 73.83) rotate(45)" fill="#4b4b4b"/>
              <rect id="Rectangle_3-5" data-name="Rectangle 3" width="41.142" height="11.835" rx="5.918" transform="translate(8.369 55.795) rotate(45)" fill="#4b4b4b"/>
              <rect id="Rectangle_4-5" data-name="Rectangle 4" width="41.142" height="11.835" rx="5.918" transform="translate(8.369 37.197) rotate(45)" fill="#4b4b4b"/>
              <rect id="Rectangle_5-5" data-name="Rectangle 5" width="41.142" height="11.835" rx="5.918" transform="translate(8.369 18.598) rotate(45)" fill="#4b4b4b"/>
              <rect id="Rectangle_6-5" data-name="Rectangle 6" width="41.142" height="11.835" rx="5.918" transform="translate(8.369) rotate(45)" fill="#4b4b4b"/>
            </g>
            <g id="Group_2-3" data-name="Group 2" transform="translate(72.755 242.44) rotate(180)">
              <rect id="Rectangle_1-6" data-name="Rectangle 1" width="41.142" height="11.835" rx="5.918" transform="translate(8.369 92.428) rotate(45)" fill="#4b4b4b"/>
              <rect id="Rectangle_2-6" data-name="Rectangle 2" width="41.142" height="11.835" rx="5.918" transform="translate(8.369 73.83) rotate(45)" fill="#4b4b4b"/>
              <rect id="Rectangle_3-6" data-name="Rectangle 3" width="41.142" height="11.835" rx="5.918" transform="translate(8.369 55.795) rotate(45)" fill="#4b4b4b"/>
              <rect id="Rectangle_4-6" data-name="Rectangle 4" width="41.142" height="11.835" rx="5.918" transform="translate(8.369 37.197) rotate(45)" fill="#4b4b4b"/>
              <rect id="Rectangle_5-6" data-name="Rectangle 5" width="41.142" height="11.835" rx="5.918" transform="translate(8.369 18.598) rotate(45)" fill="#4b4b4b"/>
              <rect id="Rectangle_6-6" data-name="Rectangle 6" width="41.142" height="11.835" rx="5.918" transform="translate(8.369) rotate(45)" fill="#4b4b4b"/>
            </g>
            <g id="Group_3-3" data-name="Group 3" transform="translate(0 112.552)">
              <path id="Path_1-3" data-name="Path 1" d="M5.953,11.871l29.395.088a5.893,5.893,0,0,0,5.918-5.918A5.979,5.979,0,0,0,35.312.088L5.918,0A5.893,5.893,0,0,0,0,5.918,5.979,5.979,0,0,0,5.953,11.871Z" transform="translate(0 29.179) rotate(-45)" fill="#4b4b4b"/>
              <path id="Path_2-3" data-name="Path 2" d="M5.953,11.871l29.395.088a5.893,5.893,0,0,0,5.918-5.918A5.979,5.979,0,0,0,35.312.088L5.918,0A5.893,5.893,0,0,0,0,5.918,5.979,5.979,0,0,0,5.953,11.871Z" transform="translate(0 47.777) rotate(-45)" fill="#4b4b4b"/>
              <path id="Path_3-3" data-name="Path 3" d="M5.953,11.871l29.395.088a5.893,5.893,0,0,0,5.918-5.918A5.979,5.979,0,0,0,35.312.088L5.918,0A5.893,5.893,0,0,0,0,5.918,5.979,5.979,0,0,0,5.953,11.871Z" transform="translate(0 65.812) rotate(-45)" fill="#4b4b4b"/>
              <path id="Path_4-3" data-name="Path 4" d="M5.953,11.871l29.395.088a5.893,5.893,0,0,0,5.918-5.918A5.979,5.979,0,0,0,35.312.088L5.918,0A5.893,5.893,0,0,0,0,5.918,5.979,5.979,0,0,0,5.953,11.871Z" transform="translate(0 84.41) rotate(-45)" fill="#4b4b4b"/>
              <path id="Path_5-3" data-name="Path 5" d="M5.953,11.871l29.395.088a5.893,5.893,0,0,0,5.918-5.918A5.979,5.979,0,0,0,35.312.088L5.918,0A5.893,5.893,0,0,0,0,5.918,5.979,5.979,0,0,0,5.953,11.871Z" transform="translate(0 103.009) rotate(-45)" fill="#4b4b4b"/>
              <path id="Path_6-3" data-name="Path 6" d="M5.953,11.871l29.395.088a5.893,5.893,0,0,0,5.918-5.918A5.979,5.979,0,0,0,35.312.088L5.918,0A5.893,5.893,0,0,0,0,5.918,5.979,5.979,0,0,0,5.953,11.871Z" transform="translate(0 121.607) rotate(-45)" fill="#4b4b4b"/>
            </g>
          </g>
        </g>
        <rect id="Rectangle_9" data-name="Rectangle 9" width="9.905" height="259.32" rx="4.952" transform="translate(31.693)" fill="#4b4b4b"/>
      </g>
      <g id="Group_12" data-name="Group 12" transform="translate(168.613 14)">
        <g id="Group_8-2" data-name="Group 8" transform="translate(73.655 246.217) rotate(180)">
          <g id="Group_4-4" data-name="Group 4" transform="translate(0.9)">
            <path id="Path_7-4" data-name="Path 7" d="M5.953,11.871l29.395.088a5.893,5.893,0,0,0,5.918-5.918A5.979,5.979,0,0,0,35.312.088L5.918,0A5.893,5.893,0,0,0,0,5.918,5.979,5.979,0,0,0,5.953,11.871Z" transform="translate(0 29.179) rotate(-45)" fill="#fff"/>
            <path id="Path_8-4" data-name="Path 8" d="M5.953,11.871l29.395.088a5.893,5.893,0,0,0,5.918-5.918A5.979,5.979,0,0,0,35.312.088L5.918,0A5.893,5.893,0,0,0,0,5.918,5.979,5.979,0,0,0,5.953,11.871Z" transform="translate(0 47.777) rotate(-45)" fill="#fff"/>
            <path id="Path_9-4" data-name="Path 9" d="M5.953,11.871l29.395.088a5.893,5.893,0,0,0,5.918-5.918A5.979,5.979,0,0,0,35.312.088L5.918,0A5.893,5.893,0,0,0,0,5.918,5.979,5.979,0,0,0,5.953,11.871Z" transform="translate(0 65.812) rotate(-45)" fill="#fff"/>
            <path id="Path_10-4" data-name="Path 10" d="M5.953,11.871l29.395.088a5.893,5.893,0,0,0,5.918-5.918A5.979,5.979,0,0,0,35.312.088L5.918,0A5.893,5.893,0,0,0,0,5.918,5.979,5.979,0,0,0,5.953,11.871Z" transform="translate(0 84.41) rotate(-45)" fill="#fff"/>
            <path id="Path_11-4" data-name="Path 11" d="M5.953,11.871l29.395.088a5.893,5.893,0,0,0,5.918-5.918A5.979,5.979,0,0,0,35.312.088L5.918,0A5.893,5.893,0,0,0,0,5.918,5.979,5.979,0,0,0,5.953,11.871Z" transform="translate(0 103.009) rotate(-45)" fill="#fff"/>
            <path id="Path_12-4" data-name="Path 12" d="M5.953,11.871l29.395.088a5.893,5.893,0,0,0,5.918-5.918A5.979,5.979,0,0,0,35.312.088L5.918,0A5.893,5.893,0,0,0,0,5.918,5.979,5.979,0,0,0,5.953,11.871Z" transform="translate(0 121.607) rotate(-45)" fill="#fff"/>
          </g>
          <g id="Group_5-4" data-name="Group 5" transform="translate(0 0)">
            <g id="Group_1-4" data-name="Group 1" transform="translate(73.655 129.888) rotate(180)">
              <rect id="Rectangle_1-7" data-name="Rectangle 1" width="41.142" height="11.835" rx="5.918" transform="translate(8.369 92.428) rotate(45)" fill="#fff"/>
              <rect id="Rectangle_2-7" data-name="Rectangle 2" width="41.142" height="11.835" rx="5.918" transform="translate(8.369 73.83) rotate(45)" fill="#fff"/>
              <rect id="Rectangle_3-7" data-name="Rectangle 3" width="41.142" height="11.835" rx="5.918" transform="translate(8.369 55.795) rotate(45)" fill="#fff"/>
              <rect id="Rectangle_4-7" data-name="Rectangle 4" width="41.142" height="11.835" rx="5.918" transform="translate(8.369 37.197) rotate(45)" fill="#fff"/>
              <rect id="Rectangle_5-7" data-name="Rectangle 5" width="41.142" height="11.835" rx="5.918" transform="translate(8.369 18.598) rotate(45)" fill="#fff"/>
              <rect id="Rectangle_6-7" data-name="Rectangle 6" width="41.142" height="11.835" rx="5.918" transform="translate(8.369) rotate(45)" fill="#fff"/>
            </g>
            <g id="Group_2-4" data-name="Group 2" transform="translate(72.755 239.257) rotate(180)">
              <rect id="Rectangle_1-8" data-name="Rectangle 1" width="41.142" height="11.835" rx="5.918" transform="translate(8.369 89.244) rotate(45)" fill="#fff"/>
              <rect id="Rectangle_2-8" data-name="Rectangle 2" width="41.142" height="11.835" rx="5.918" transform="translate(8.369 70.646) rotate(45)" fill="#fff"/>
              <rect id="Rectangle_3-8" data-name="Rectangle 3" width="41.142" height="11.835" rx="5.918" transform="translate(8.369 52.611) rotate(45)" fill="#fff"/>
              <rect id="Rectangle_4-8" data-name="Rectangle 4" width="41.142" height="11.835" rx="5.918" transform="translate(8.369 34.013) rotate(45)" fill="#fff"/>
              <rect id="Rectangle_5-8" data-name="Rectangle 5" width="41.142" height="11.835" rx="5.918" transform="translate(8.369 15.415) rotate(45)" fill="#fff"/>
              <rect id="Rectangle_6-8" data-name="Rectangle 6" width="36.64" height="11.835" rx="5.918" transform="translate(11.552) rotate(45)" fill="#fff"/>
            </g>
            <g id="Group_3-4" data-name="Group 3" transform="translate(0 112.552)">
              <path id="Path_1-4" data-name="Path 1" d="M5.953,11.871l29.395.088a5.893,5.893,0,0,0,5.918-5.918A5.979,5.979,0,0,0,35.312.088L5.918,0A5.893,5.893,0,0,0,0,5.918,5.979,5.979,0,0,0,5.953,11.871Z" transform="translate(0 29.179) rotate(-45)" fill="#fff"/>
              <path id="Path_2-4" data-name="Path 2" d="M5.953,11.871l29.395.088a5.893,5.893,0,0,0,5.918-5.918A5.979,5.979,0,0,0,35.312.088L5.918,0A5.893,5.893,0,0,0,0,5.918,5.979,5.979,0,0,0,5.953,11.871Z" transform="translate(0 47.777) rotate(-45)" fill="#fff"/>
              <path id="Path_3-4" data-name="Path 3" d="M5.953,11.871l29.395.088a5.893,5.893,0,0,0,5.918-5.918A5.979,5.979,0,0,0,35.312.088L5.918,0A5.893,5.893,0,0,0,0,5.918,5.979,5.979,0,0,0,5.953,11.871Z" transform="translate(0 65.812) rotate(-45)" fill="#fff"/>
              <path id="Path_4-4" data-name="Path 4" d="M5.953,11.871l29.395.088a5.893,5.893,0,0,0,5.918-5.918A5.979,5.979,0,0,0,35.312.088L5.918,0A5.893,5.893,0,0,0,0,5.918,5.979,5.979,0,0,0,5.953,11.871Z" transform="translate(0 84.41) rotate(-45)" fill="#fff"/>
              <path id="Path_5-4" data-name="Path 5" d="M5.953,11.871l29.395.088a5.893,5.893,0,0,0,5.918-5.918A5.979,5.979,0,0,0,35.312.088L5.918,0A5.893,5.893,0,0,0,0,5.918,5.979,5.979,0,0,0,5.953,11.871Z" transform="translate(0 103.009) rotate(-45)" fill="#fff"/>
              <path id="Path_6-4" data-name="Path 6" d="M5.953,11.871l29.395.088a5.893,5.893,0,0,0,5.918-5.918A5.979,5.979,0,0,0,35.312.088L5.918,0A5.893,5.893,0,0,0,0,5.918,5.979,5.979,0,0,0,5.953,11.871Z" transform="translate(0 121.607) rotate(-45)" fill="#fff"/>
            </g>
          </g>
        </g>
        <rect id="Rectangle_9-2" data-name="Rectangle 9" width="9.905" height="334.955" rx="4.952" transform="translate(31.693)" fill="#fff"/>
      </g>
    </g>
    <g id="Path_13" data-name="Path 13" fill="none">
      <path d="M250,0A249.863,249.863,0,0,1,500,250c0,138.071-111.929,250-250,250S0,388.071,0,250,111.929,0,250,0Z" stroke="none"/>
      <path d="M 250 10 C 117.66357421875 10 10 117.66357421875 10 250 C 10 382.33642578125 117.66357421875 490 250 490 C 382.33642578125 490 490 382.33642578125 490 250 C 490 161.525146484375 441.5599365234375 80.49221801757812 363.5831298828125 38.52371215820312 C 328.9125061035156 19.86334228515625 289.6360778808594 10 250 10 M 250 0 C 292.802001953125 0 333.0917358398438 10.75628662109375 368.322509765625 29.7181396484375 C 446.7105712890625 71.90798950195312 500 154.7308654785156 500 250 C 500 388.0711364746094 388.0711364746094 500 250 500 C 111.9288635253906 500 0 388.0711364746094 0 250 C 0 111.9288635253906 111.9288635253906 0 250 0 Z" stroke="none" fill="#f4f4f4"/>
    </g>
  </g>
</svg>
