<svg xmlns="http://www.w3.org/2000/svg" xmlns:xlink="http://www.w3.org/1999/xlink" width="500" height="500" viewBox="0 0 500 500">
  <defs>
    <clipPath id="clip-iPad_3">
      <rect width="500" height="500"/>
    </clipPath>
  </defs>
  <g id="iPad_3" data-name="iPad – 3" clip-path="url(#clip-iPad_3)">
    <rect width="500" height="500" fill="#fff"/>
    <g id="Rectangle_10" data-name="Rectangle 10" fill="#030303" stroke="#707070" stroke-width="1">
      <rect width="500" height="500" stroke="none"/>
      <rect x="0.5" y="0.5" width="499" height="499" fill="none"/>
    </g>
    <g id="Path_13" data-name="Path 13" fill="none">
      <path d="M250,0A249.863,249.863,0,0,1,500,250c0,138.071-111.929,250-250,250S0,388.071,0,250,111.929,0,250,0Z" stroke="none"/>
      <path d="M 250 10 C 117.66357421875 10 10 117.66357421875 10 250 C 10 382.33642578125 117.66357421875 490 250 490 C 382.33642578125 490 490 382.33642578125 490 250 C 490 161.525146484375 441.5599365234375 80.49221801757812 363.5831298828125 38.52371215820312 C 328.9125061035156 19.86334228515625 289.6360778808594 10 250 10 M 250 0 C 292.802001953125 0 333.0917358398438 10.75628662109375 368.322509765625 29.7181396484375 C 446.7105712890625 71.90798950195312 500 154.7308654785156 500 250 C 500 388.0711364746094 388.0711364746094 500 250 500 C 111.9288635253906 500 0 388.0711364746094 0 250 C 0 111.9288635253906 111.9288635253906 0 250 0 Z" stroke="none" fill="#f4f4f4"/>
    </g>
    <path id="Path_14" data-name="Path 14" d="M170.943-272.5s41.841-22.086,94.4,17.127,78.892,18.617,78.892,18.617v27.722l-22.9,21.549L281.3-181.054H190.839L166.89-191.527l-14.818-17.507Z" transform="translate(0 577)" fill="#fff"/>
    <g id="Group_16" data-name="Group 16" transform="translate(6.066 -9.133)">
      <g id="Union_1" data-name="Union 1" transform="translate(144.608 153.776)" fill="none">
        <path d="M39.364,256.224A44,44,0,0,1-2,197.228L43.155,72.667V0H154.476V70.954l45.778,126.274a44,44,0,0,1-41.366,59Z" stroke="none"/>
        <path d="M 158.8877868652344 241.2236938476562 C 168.4744415283203 241.2236938476562 177.1290893554688 236.7219543457031 182.6326904296875 228.8726959228516 C 188.1362915039062 221.0234985351562 189.4188842773438 211.3526916503906 186.1516418457031 202.3401031494141 L 140.3740386962891 76.06599426269531 L 139.4759979248047 73.5887451171875 L 139.4759979248047 70.95369720458984 L 139.4759979248047 14.99999713897705 L 58.15499114990234 14.99999713897705 L 58.15499114990234 72.66664886474609 L 58.15499114990234 75.30169677734375 L 57.25694274902344 77.77894592285156 L 12.100341796875 202.3399963378906 C 8.833091735839844 211.3526916503906 10.11569213867188 221.0234985351562 15.61929225921631 228.8726959228516 C 21.12289237976074 236.7219543457031 29.77754211425781 241.2236938476562 39.36419296264648 241.2236938476562 L 158.8877868652344 241.2236938476562 M 158.8877868652344 256.2236938476562 L 39.36419296264648 256.2236938476562 C 8.847891807556152 256.2236938476562 -12.40200805664062 225.9170989990234 -2.00160813331604 197.2277984619141 L 43.15499114990234 72.66664886474609 L 43.15499114990234 -3.076171879001777e-06 L 154.4759979248047 -3.076171879001777e-06 L 154.4759979248047 70.95369720458984 L 200.2535858154297 197.2277984619141 C 210.6539916992188 225.9170989990234 189.4040985107422 256.2236938476562 158.8877868652344 256.2236938476562 Z" stroke="none" fill="#4b4b4b"/>
      </g>
      <g id="Rectangle_12" data-name="Rectangle 12" transform="translate(162.021 115.133)" fill="none" stroke="#4b4b4b" stroke-width="15">
        <rect width="164.804" height="53.484" rx="19" stroke="none"/>
        <rect x="7.5" y="7.5" width="149.804" height="38.484" rx="11.5" fill="none"/>
      </g>
    </g>
    <rect id="Rectangle_13" data-name="Rectangle 13" width="70" height="15" rx="7.5" transform="translate(242 235)" fill="#4b4b4b"/>
    <rect id="Rectangle_14" data-name="Rectangle 14" width="43" height="15" rx="7.5" transform="translate(281 266)" fill="#4b4b4b"/>
    <rect id="Rectangle_15" data-name="Rectangle 15" width="43" height="15" rx="7.5" transform="translate(288 297)" fill="#4b4b4b"/>
  </g>
</svg>
