<svg xmlns="http://www.w3.org/2000/svg" xmlns:xlink="http://www.w3.org/1999/xlink" width="500" height="500" viewBox="0 0 500 500">
  <defs>
    <clipPath id="clip-iPad_4">
      <rect width="500" height="500"/>
    </clipPath>
  </defs>
  <g id="iPad_4" data-name="iPad – 4" clip-path="url(#clip-iPad_4)">
    <rect width="500" height="500" fill="#fff"/>
    <g id="Rectangle_10" data-name="Rectangle 10" fill="#030303" stroke="#707070" stroke-width="1">
      <rect width="500" height="500" stroke="none"/>
      <rect x="0.5" y="0.5" width="499" height="499" fill="none"/>
    </g>
    <g id="Path_13" data-name="Path 13" fill="none">
      <path d="M250,0A249.863,249.863,0,0,1,500,250c0,138.071-111.929,250-250,250S0,388.071,0,250,111.929,0,250,0Z" stroke="none"/>
      <path d="M 250 10 C 117.66357421875 10 10 117.66357421875 10 250 C 10 382.33642578125 117.66357421875 490 250 490 C 382.33642578125 490 490 382.33642578125 490 250 C 490 161.525146484375 441.5599365234375 80.49221801757812 363.5831298828125 38.52371215820312 C 328.9125061035156 19.86334228515625 289.6360778808594 10 250 10 M 250 0 C 292.802001953125 0 333.0917358398438 10.75628662109375 368.322509765625 29.7181396484375 C 446.7105712890625 71.90798950195312 500 154.7308654785156 500 250 C 500 388.0711364746094 388.0711364746094 500 250 500 C 111.9288635253906 500 0 388.0711364746094 0 250 C 0 111.9288635253906 111.9288635253906 0 250 0 Z" stroke="none" fill="#f4f4f4"/>
    </g>
    <g id="Group_17" data-name="Group 17" transform="translate(5.966 5.976)">
      <path id="Union_2" data-name="Union 2" d="M98.673,230.1A24.621,24.621,0,0,1,87.2,224.7a25.023,25.023,0,0,1-2.039-1.915L27.688,174.561a24.74,24.74,0,1,1,31.805-37.9l40.663,34.121L218.546,29.687a24.74,24.74,0,0,1,37.9,31.805L124.55,218.684A24.779,24.779,0,0,1,98.673,230.1Z" transform="translate(59.184 118.175)" fill="#4b4b4b"/>
      <path id="Union_3" data-name="Union 3" d="M98.673,230.1A24.621,24.621,0,0,1,87.2,224.7a25.023,25.023,0,0,1-2.039-1.915L27.688,174.561a24.74,24.74,0,1,1,31.805-37.9l40.663,34.121L218.546,29.687a24.74,24.74,0,0,1,37.9,31.805L124.55,218.684A24.779,24.779,0,0,1,98.673,230.1Z" transform="translate(147.184 118.175)" fill="#fff"/>
    </g>
  </g>
</svg>
